# xmcd CD database file
#
# Track frame offsets:
#	150
#	26690
#	51417
#	76082
#	99952
#	125802
#
# Disc length: 1986 seconds
#
# Revision: 0
# Processed by: cddbd v1.5.1PL0 Copyright (c) Steve Scherf et al.
# Submitted via: CDex 1.51
#
DISCID=4607c006
DTITLE=THIS TIME - a treasure island
DYEAR=1995
DGENRE=JPop
TTITLE0=a treasure island
TTITLE1=under the moon
TTITLE2=Hello! it's me
TTITLE3=真夏のfake fur
TTITLE4=again
TTITLE5=Dancin'
EXTD=YEAR: 1995
EXTT0=
EXTT1=
EXTT2=
EXTT3=
EXTT4=
EXTT5=
PLAYORDER=
